<svg width="28" height="28" viewBox="0 0 28 28" fill="none" xmlns="http://www.w3.org/2000/svg">
<g id="Emoji">
<path id="Vector" d="M27.0349 14L23.0852 16.4706H22.07V13.1765C22.07 13.104 22.0536 13.0373 22.0487 12.9656C24.8786 12.2409 26.9744 9.66412 26.9744 6.58824C26.9744 2.94988 24.0465 0 20.4352 0C16.8239 0 13.8951 2.94988 13.8951 6.58824C13.8951 7.79306 14.2319 8.91224 14.7934 9.88235H11.3783C11.4167 9.61224 11.4437 9.33882 11.4437 9.05882C11.4437 5.87506 8.88194 3.29412 5.72185 3.29412C2.56257 3.29412 0 5.87506 0 9.05882C0 11.3565 1.33891 13.3354 3.26963 14.2611V23.0588C3.26963 24.878 4.7336 26.3529 6.53925 26.3529H18.8004C20.606 26.3529 22.07 24.878 22.07 23.0588V20.5882H23.0852L27.0349 23.0588H27.7918V14H27.0349ZM22.6642 2.45165C24.1045 3.24141 25.0846 4.77318 25.1034 6.53718L22.2171 6.05294C22.1256 5.74329 21.9637 5.46412 21.7406 5.24424L22.6642 2.45165ZM21.9286 7.67447L24.832 8.162C24.2925 9.69129 22.9896 10.8467 21.3874 11.1835C21.085 10.7858 20.6984 10.4629 20.2496 10.2381L20.7605 8.43459C21.215 8.34153 21.64 8.06235 21.9286 7.67447ZM20.4352 1.88176C20.6657 1.88176 20.8905 1.904 21.112 1.93694L20.1875 4.73035C19.8573 4.77482 19.5564 4.90329 19.3039 5.09765L16.6914 3.78165C17.5432 2.63118 18.9009 1.88176 20.4352 1.88176ZM15.7637 6.58824C15.7637 6.12459 15.8332 5.67741 15.9566 5.25412L18.5674 6.56929L18.5658 6.58824C18.5658 7.12929 18.8216 7.61353 19.196 7.95694L18.6499 9.88235H17.1206C16.2868 9.03412 15.7637 7.87624 15.7637 6.58824ZM8.33509 6.27118C9.07158 6.972 9.53668 7.95776 9.53668 9.05882C9.53668 9.34212 9.50153 9.61635 9.44431 9.88235H7.4384C7.55692 9.632 7.62886 9.35447 7.62886 9.05882C7.62886 8.66518 7.51033 8.29953 7.30843 7.99482L8.33509 6.27118ZM5.72185 5.21541C6.14608 5.21541 6.54743 5.30188 6.92834 5.43035L5.90168 7.15482C5.842 7.14906 5.78315 7.13671 5.72185 7.13671C5.33113 7.13671 4.9682 7.25612 4.66576 7.45953L2.95492 6.426C3.65054 5.684 4.62897 5.21541 5.72185 5.21541ZM1.90701 9.05882C1.90701 8.63141 1.99284 8.22706 2.12035 7.84247L3.83282 8.87765C3.8271 8.93776 3.81484 8.99624 3.81484 9.05882C3.81484 9.67647 4.1091 10.22 4.55868 10.5716C4.04861 10.9661 3.66198 11.5055 3.45273 12.1322C2.52006 11.4314 1.90701 10.3213 1.90701 9.05882Z" fill="black"/>
<path id="Vector_2" d="M18.8003 16.4706C19.7032 16.4706 20.4352 15.7332 20.4352 14.8235C20.4352 13.9139 19.7032 13.1765 18.8003 13.1765C17.8975 13.1765 17.1655 13.9139 17.1655 14.8235C17.1655 15.7332 17.8975 16.4706 18.8003 16.4706Z" fill="#8899A6"/>
<path id="Vector_3" d="M6.53923 16.4706C7.44211 16.4706 8.17405 15.7332 8.17405 14.8235C8.17405 13.9139 7.44211 13.1765 6.53923 13.1765C5.63635 13.1765 4.90442 13.9139 4.90442 14.8235C4.90442 15.7332 5.63635 16.4706 6.53923 16.4706Z" fill="#8899A6"/>
<path id="Vector_4" d="M18.8003 21.4118C18.8003 20.5026 18.0679 19.7647 17.1655 19.7647H8.17406C7.27164 19.7647 6.53925 20.5026 6.53925 21.4118V26.3529C6.53925 27.2621 7.27164 28 8.17406 28H17.1655C18.0679 28 18.8003 27.2621 18.8003 26.3529V21.4118Z" fill="#8899A6"/>
</g>
</svg>
